<svg xmlns="http://www.w3.org/2000/svg" width="30" height="69" viewBox="0 0 30 69"><path d="M0,36.5v-24C0,5.60742,6.72852,0,15,0S30,5.60742,30,12.5v46C30,64.584,25.14453,69,18.4541,69c-6.917,0-12.54492-4.71045-12.54492-10.5v-38c0-4.13574,3.97559-7.5,8.86328-7.5s8.86426,3.36426,8.86426,7.5v16h-3v-16c0-2.48145-2.63086-4.5-5.86426-4.5s-5.86328,2.01855-5.86328,4.5v38c0,4.13574,4.28223,7.5,9.54492,7.5C23.48535,66,27,62.916,27,58.5v-46C27,7.26172,21.61719,3,15,3S3,7.26172,3,12.5v24Z" fill="#252238"/></svg>